<?xml version="1.0" encoding="UTF-8" standalone="no"?><!DOCTYPE svg PUBLIC "-//W3C//DTD SVG 1.1//EN" "http://www.w3.org/Graphics/SVG/1.1/DTD/svg11.dtd"><svg width="100%" height="100%" viewBox="0 0 293 300" version="1.1" xmlns="http://www.w3.org/2000/svg" xmlns:xlink="http://www.w3.org/1999/xlink" xml:space="preserve" xmlns:serif="http://www.serif.com/" style="fill-rule:evenodd;clip-rule:evenodd;stroke-linecap:round;stroke-linejoin:round;stroke-miterlimit:1.5;"><g id="Miss-Laura" serif:id="Miss Laura"><path id="hair" d="M237.94,55.552l7.593,-6.417c0,0 -7.611,-36.839 -46.357,-45.588c-38.746,-8.749 -60.614,1.108 -73.689,14.521c-13.076,13.413 -25.118,13.644 -44.239,18.574c-19.121,4.929 -53.541,31.972 -41.681,91.179c7.342,36.654 -13.103,44.463 -26.692,57.615c-13.588,13.152 -18.245,21.326 -13.844,41.877c4.4,20.551 -6.704,25.087 -17.223,37.484c-10.519,12.398 -10.425,20.138 -9.456,32.42c0,0 106.209,19.84 136.095,15.122c0,0 16.529,-43.227 23.638,-83.338c7.109,-40.111 11.39,-53.615 35.46,-85.5c24.07,-31.884 49.421,-56.833 58.76,-70.052c9.34,-13.22 11.635,-17.897 11.635,-17.897Z" style="fill:#1e1811;"/><path id="hair1" serif:id="hair" d="M240.797,118.386c0,0 8.267,6.512 -3.375,30.582c-11.643,24.071 -9.253,32.739 2.026,39.511c11.278,6.773 23.64,24.847 16.208,46.94c-7.432,22.093 4.352,24.432 16.212,30.732c11.861,6.3 24.08,20.163 18.909,37.483c0,0 -99.276,9.24 -156.353,8.705c0,0 -1.508,-60.171 9.615,-99.534c11.122,-39.364 26.743,-42.642 43.957,-52.344c17.215,-9.703 41.621,-13.986 52.801,-42.075Z" style="fill:#1e1811;"/><path id="body" d="M239.428,54.215c0,0 24.528,47.058 -7.033,89.286c-31.561,42.228 -69.825,24.568 -78.464,59.501c-8.638,34.933 14.633,47.666 29.611,60.329c14.978,12.663 18.117,34.28 18.133,46.263c0,0 -120.755,7.607 -162.108,-2.506c0,0 3.718,-45.995 41.823,-60.329c38.105,-14.333 44.456,-25.548 49.594,-40.342c5.138,-14.795 -3.058,-28.168 -15.549,-34.116c-10.574,-5.034 -23.89,-13.877 -26.578,-27.544c-1.841,-9.366 -20.742,-94.864 64.706,-111.925c63.895,-12.758 85.865,21.383 85.865,21.383Z" style="fill:#eab376;"/><clipPath id="_clip1"><path id="body1" serif:id="body" d="M239.428,54.215c0,0 24.528,47.058 -7.033,89.286c-31.561,42.228 -69.825,24.568 -78.464,59.501c-8.638,34.933 14.633,47.666 29.611,60.329c14.978,12.663 18.117,34.28 18.133,46.263c0,0 -120.755,7.607 -162.108,-2.506c0,0 3.718,-45.995 41.823,-60.329c38.105,-14.333 44.456,-25.548 49.594,-40.342c5.138,-14.795 -3.058,-28.168 -15.549,-34.116c-10.574,-5.034 -23.89,-13.877 -26.578,-27.544c-1.841,-9.366 -20.742,-94.864 64.706,-111.925c63.895,-12.758 85.865,21.383 85.865,21.383Z"/></clipPath><g clip-path="url(#_clip1)"><path d="M106.291,234.016c0,0 16.28,39.254 61.48,6.839c0,0 33.284,18.63 35.459,53.441l1.012,20.514c0,0 -119.751,9.331 -167.92,-2.471c0,0 -1.181,-33.037 22.54,-56.794c23.722,-23.758 47.429,-21.529 47.429,-21.529Z" style="fill:#c0e1df;"/><path d="M100.923,239.092l22.778,55.204l25.614,-28.661l16.447,-17.932c0,0 26.327,9.829 31.658,25.074c5.332,15.245 12.652,35.414 6.822,39.585c-5.83,4.17 -141.369,4.797 -151.697,5.95c-10.328,1.152 -16.233,-5.973 -16.233,-5.973c0,0 1.127,-33.532 21.552,-53.24c20.426,-19.708 35.193,-18.02 43.059,-20.007Z" style="fill:#fff;"/><g><path d="M147.996,81.423c11.277,4.126 17.229,16.232 13.283,27.019c-3.946,10.786 -16.305,16.193 -27.582,12.068c-11.277,-4.126 -17.229,-16.232 -13.284,-27.019c3.946,-10.786 16.306,-16.193 27.583,-12.068Z" style="fill:#1d1d1d;"/><circle cx="141.47" cy="103.379" r="21.757" style="fill:#fff;"/><clipPath id="_clip2"><circle cx="141.47" cy="103.379" r="21.757"/></clipPath><g clip-path="url(#_clip2)"><circle cx="148.898" cy="98.479" r="21.757" style="fill:#462d0e;"/><path d="M150.646,88.155l1.61,2.462l2.839,0.771l-1.843,2.292l0.143,2.938l-2.749,-1.044l-2.75,1.044l0.143,-2.938l-1.843,-2.292l2.839,-0.771l1.611,-2.462Z" style="fill:#fff;"/></g><path d="M116.854,103.523c1.293,0.591 2.328,1.095 2.897,1.598c-0.168,-0.964 -0.112,-1.047 -0.148,-1.994c-0.832,0.199 -1.461,0.287 -2.749,0.396Z" style="fill:#0e0e0e;"/></g><g><path d="M233.254,63.818c11.277,4.125 17.229,16.232 13.284,27.018c-3.946,10.786 -16.306,16.194 -27.583,12.068c-11.277,-4.125 -17.229,-16.232 -13.283,-27.018c3.946,-10.786 16.305,-16.194 27.582,-12.068Z" style="fill:#1d1d1d;"/><circle cx="226.729" cy="85.774" r="21.757" style="fill:#fff;"/><clipPath id="_clip3"><circle cx="226.729" cy="85.774" r="21.757"/></clipPath><g clip-path="url(#_clip3)"><circle cx="234.156" cy="80.873" r="21.757" style="fill:#462d0e;"/><path d="M235.904,70.55l1.61,2.461l2.839,0.771l-1.843,2.293l0.143,2.938l-2.749,-1.045l-2.75,1.045l0.143,-2.938l-1.843,-2.293l2.839,-0.771l1.611,-2.461Z" style="fill:#fff;"/></g></g><path d="M136.325,131.802c9.108,-1.283 16.98,1.058 17.567,5.224c0.587,4.166 -6.332,8.591 -15.44,9.874c-9.109,1.283 -16.981,-1.058 -17.568,-5.224c-0.587,-4.166 6.332,-8.591 15.441,-9.874Z" style="fill:#cf6b3d;fill-opacity:0.14;"/><path d="M234.063,113.781c9.109,-1.283 16.98,1.057 17.567,5.224c0.587,4.166 -6.331,8.591 -15.44,9.874c-9.109,1.283 -16.98,-1.058 -17.567,-5.224c-0.587,-4.167 6.331,-8.591 15.44,-9.874Z" style="fill:#cf6b3d;fill-opacity:0.14;"/></g><ellipse cx="80.857" cy="132.682" rx="14.45" ry="14.426" style="fill:#eab376;"/><path id="nose" d="M192.053,105.424l2.273,18.687c0,0 6.87,0.73 9.872,-4.284l-12.145,-14.403Z" style="fill:#c3672d;"/><path id="mouth" d="M187.081,128.989c0,0 10.998,7.711 20.388,-4.336" style="fill:none;stroke:#d53216;stroke-width:2px;"/><path d="M195.241,134.79c0,0 3.238,0.788 5.797,-1.016" style="fill:none;stroke:#e2a25b;stroke-width:0.95px;"/><g id="ears"><circle cx="80.564" cy="148.001" r="5.156" style="fill:#ffc664;"/><path d="M78.095,143.474c-0.845,0.919 -1.362,2.145 -1.362,3.49c0,2.846 2.31,5.156 5.156,5.156c0.894,0 1.736,-0.228 2.469,-0.629c-0.943,1.023 -2.294,1.665 -3.794,1.665c-2.845,0 -5.156,-2.31 -5.156,-5.155c0,-1.952 1.087,-3.651 2.687,-4.527Z" style="fill:#f8b238;"/><circle cx="82.748" cy="145.889" r="1.573" style="fill:#ffe4b4;"/></g><path d="M79.163,132.74c0,0 -2.441,2.209 -4.473,2.47c-1.078,0.138 -1.736,-0.61 -1.843,-2.966c-0.078,-1.038 0.1,-1.977 0.422,-2.802c0.229,-0.589 0.542,-1.114 0.923,-1.57c0.995,-1.194 2.444,-1.909 4.037,-1.843c2.609,0.108 5.426,2.058 7.31,6.707c0.066,0.195 0.279,0.3 0.474,0.234c0.195,-0.066 0.3,-0.279 0.234,-0.474c-0.767,-2.836 -1.964,-4.862 -3.331,-6.236c-1.385,-1.391 -2.969,-2.092 -4.504,-2.298c-1.948,-0.261 -3.844,0.34 -5.309,1.532c-0.623,0.507 -1.166,1.132 -1.587,1.854c-0.819,1.403 -1.196,3.169 -0.944,5.134c0.484,3.015 1.681,4.168 2.96,4.399c0.98,0.176 2.091,-0.159 3.098,-0.807c1.672,-1.076 3.077,-2.821 3.077,-2.821c0.141,-0.151 0.134,-0.387 -0.016,-0.528c-0.15,-0.142 -0.387,-0.135 -0.528,0.015Z" style="fill:#e2a25b;"/><path d="M86.283,119.086c0,0 19.113,-14.929 25.189,-63.565c13.247,4.124 86.358,25.216 134.061,-7.014c0,0 -26.874,-32.355 -67.429,-28.218c-40.555,4.137 -62.744,9.755 -80.594,32.249c-17.851,22.495 -21.518,36.718 -11.227,66.548Z" style="fill:#1e1811;"/><g id="glasses"><path d="M105.967,81.166c-1.038,0.171 -1.766,1.116 -1.667,2.163c0,0 1.294,13.578 7.774,25.972c6.662,12.743 18.676,24.226 39.999,19.359c38.118,-8.701 27.164,-48.17 24.469,-56.018c-0.297,-0.865 -0.507,-1.377 -0.552,-1.474c-0.458,-0.978 -1.229,-1.079 -1.323,-1.103c-0.031,-0.008 -0.3,-0.109 -0.794,-0.04c-0.131,0.018 -0.813,0.127 -1.944,0.31c-11.048,1.791 -65.962,10.831 -65.962,10.831Zm66.892,-6.929l-0.29,0.047c-9.817,1.591 -54.274,8.907 -64.049,10.516c0.58,3.962 2.387,13.636 7.099,22.648c5.93,11.342 16.584,21.644 35.564,17.312c33.973,-7.754 24.277,-42.788 21.676,-50.523Z" style="fill:#ffc2db;"/><path d="M257.099,54.949c-0.3,-1.006 -1.327,-1.608 -2.351,-1.38c0,0 -50.937,11.353 -61.175,13.661c-1.049,0.236 -1.682,0.38 -1.803,0.411c-0.487,0.121 -0.7,0.319 -0.725,0.338c-0.078,0.057 -0.756,0.441 -0.811,1.522c-0.005,0.101 -0.005,0.629 0.044,1.498c0.444,7.858 4.961,46.441 41.274,40.676c20.337,-3.229 26.736,-17.579 28.01,-31.158c1.236,-13.175 -2.463,-25.568 -2.463,-25.568Zm-3.36,2.943c-9.287,2.07 -50.226,11.197 -59.286,13.24l-0.157,0.035c0.509,7.873 4.582,41.646 36.629,36.557c17.956,-2.851 23.529,-15.59 24.654,-27.581c0.889,-9.472 -0.932,-18.514 -1.84,-22.251Z" style="fill:#ffc2db;"/><path d="M176.774,86.853c0,0 4.32,-2.792 9.21,-3.811c2.905,-0.604 6.057,-0.632 8.423,1.371c0.842,0.713 2.105,0.608 2.818,-0.234c0.714,-0.843 0.609,-2.106 -0.234,-2.819c-3.335,-2.824 -7.726,-3.086 -11.822,-2.234c-5.609,1.168 -10.565,4.366 -10.565,4.366c-0.927,0.599 -1.194,1.838 -0.595,2.765c0.599,0.928 1.838,1.194 2.765,0.596Z" style="fill:#ffc2db;"/><path d="M104.561,86.382l-20.009,34.512c-0.553,0.955 -0.227,2.18 0.727,2.734c0.955,0.553 2.18,0.228 2.734,-0.727l20.009,-34.513c0.553,-0.955 0.227,-2.18 -0.727,-2.734c-0.955,-0.553 -2.18,-0.227 -2.734,0.728Z" style="fill:#ffc2db;"/></g><path d="M102.426,234.016l21.275,60.28l-29.429,-35.084l7.114,-5.716l-15.103,-0.376l16.143,-19.104Z" style="fill:#f6f6f6;"/><path d="M163.257,236.974l-39.556,57.322l41.053,-28.511l-5.908,-8.035l16.082,3.903l-11.671,-24.679Z" style="fill:#f6f6f6;"/><path d="M177.727,253.494c0,0 -7.385,-8.024 -11.233,-19.967c-2.108,-6.544 -3.166,-14.274 -1.279,-22.526c1.535,-6.906 4.704,-11.955 8.81,-16.058c4.04,-4.038 8.994,-7.162 14.273,-10.167c7.509,-4.274 15.645,-8.325 22.763,-14.27c7.782,-6.532 12.97,-11.41 16.587,-15.445c4.506,-5.024 6.589,-8.741 8.221,-12.685c0.065,-0.151 -0.006,-0.327 -0.157,-0.392c-0.152,-0.065 -0.328,0.006 -0.392,0.157c-1.695,3.839 -3.835,7.438 -8.374,12.276c-3.682,3.924 -8.934,8.658 -16.798,14.977c-7.143,5.769 -15.29,9.597 -22.77,13.743c-5.475,3.034 -10.609,6.228 -14.764,10.397c-4.336,4.352 -7.604,9.762 -9.153,17.087c-1.764,8.594 -0.538,16.589 1.821,23.313c4.226,12.045 12.013,19.972 12.013,19.972c0.113,0.12 0.302,0.124 0.422,0.011c0.119,-0.114 0.124,-0.303 0.01,-0.423Z" style="fill:#2b2723;"/><path d="M106.632,55.443c0,0 -0.72,5.506 -2.794,13.564c-0.695,2.702 -1.542,5.688 -2.55,8.86c-0.741,2.332 -1.573,4.762 -2.492,7.253c-0.861,2.333 -1.789,4.723 -2.829,7.123c-1.652,3.813 -3.557,7.657 -5.79,11.384c-2.169,3.622 -4.623,7.138 -7.445,10.401c-0.111,0.122 -0.102,0.311 0.02,0.422c0.122,0.111 0.311,0.103 0.422,-0.019c4.567,-4.763 8.368,-10.128 11.469,-15.665c2.18,-3.891 4.03,-7.856 5.554,-11.739c0.814,-2.073 1.526,-4.125 2.156,-6.125c0.679,-2.153 1.254,-4.247 1.753,-6.247c0.683,-2.739 1.216,-5.299 1.633,-7.603c1.263,-6.97 1.489,-11.556 1.489,-11.556c0.014,-0.164 -0.107,-0.31 -0.271,-0.324c-0.165,-0.015 -0.31,0.107 -0.325,0.271Z" style="fill:#2b2723;"/><path d="M95.495,43.381c0,0 0.823,4.262 0.156,11.141c-0.214,2.197 -0.579,4.659 -1.164,7.341c-0.411,1.89 -0.937,3.886 -1.586,5.979c-0.579,1.871 -1.264,3.816 -2.061,5.831c-1.398,3.533 -3.158,7.269 -5.435,11.138c-2.849,4.842 -6.456,9.905 -11.11,15.028c-0.114,0.12 -0.11,0.309 0.009,0.423c0.119,0.114 0.309,0.11 0.423,-0.009c4.973,-4.937 8.925,-9.841 12.014,-14.618c2.497,-3.861 4.449,-7.624 5.933,-11.221c0.851,-2.062 1.541,-4.073 2.104,-6.009c0.629,-2.167 1.091,-4.243 1.433,-6.204c0.484,-2.777 0.722,-5.323 0.806,-7.587c0.262,-7.073 -0.94,-11.371 -0.94,-11.371c-0.038,-0.16 -0.199,-0.26 -0.36,-0.222c-0.16,0.038 -0.26,0.2 -0.222,0.36Z" style="fill:#2b2723;"/><path d="M87.386,158.175c0,0 0.692,6.077 5.058,13.157c1.36,2.206 3.083,4.501 5.247,6.735c1.263,1.303 2.683,2.575 4.262,3.803c2.326,1.762 4.455,3.673 6.361,5.664c3.105,3.244 5.58,6.739 7.058,10.445c2.517,6.312 2.178,13.169 -2.606,20.086c-0.097,0.133 -0.068,0.32 0.066,0.417c0.133,0.097 0.32,0.067 0.417,-0.066c5.355,-7.04 6,-14.263 3.602,-20.995c-1.412,-3.964 -3.882,-7.77 -7.11,-11.235c-1.951,-2.094 -4.196,-4.044 -6.614,-5.868c-2.376,-1.739 -4.377,-3.606 -6.077,-5.48c-1.307,-1.44 -2.435,-2.882 -3.407,-4.289c-4.591,-6.646 -5.666,-12.462 -5.666,-12.462c-0.025,-0.163 -0.177,-0.276 -0.34,-0.252c-0.163,0.024 -0.276,0.177 -0.251,0.34Z" style="fill:#2b2723;"/><path d="M71.888,155.957c0,0 -3.937,6.546 -3.925,15.512c0.006,4.719 1.128,10.089 4.409,15.522c1.981,3.202 3.449,6.951 4.463,10.971c1.414,5.604 1.9,11.754 1.287,17.825c-1.019,10.094 -5,19.951 -12.584,26.54c-0.126,0.106 -0.142,0.295 -0.036,0.421c0.106,0.126 0.294,0.143 0.421,0.037c8.016,-6.498 12.496,-16.476 13.83,-26.811c0.562,-4.347 0.561,-8.758 0.034,-12.993c-0.233,-1.876 -0.57,-3.718 -1.017,-5.502c-1.059,-4.228 -2.703,-8.134 -4.822,-11.475c-3.277,-5.043 -4.467,-10.096 -4.651,-14.563c-0.355,-8.68 3.111,-15.189 3.111,-15.189c0.081,-0.144 0.031,-0.326 -0.112,-0.407c-0.144,-0.082 -0.326,-0.031 -0.408,0.112Z" style="fill:#2b2723;"/><path d="M150.912,20.467c0,0 5.93,-1.423 14.461,-2.002c2.966,-0.201 6.244,-0.299 9.704,-0.215c2.598,0.064 5.297,0.236 8.043,0.544c2.618,0.294 5.281,0.702 7.936,1.301c4.284,0.967 8.549,2.399 12.59,4.497c3.862,2.005 7.523,4.592 10.792,7.948c0.112,0.121 0.301,0.128 0.422,0.016c0.121,-0.112 0.128,-0.301 0.016,-0.422c-4.826,-5.465 -10.654,-9.204 -16.829,-11.664c-4.358,-1.737 -8.884,-2.853 -13.333,-3.478c-2.32,-0.327 -4.621,-0.511 -6.863,-0.59c-2.37,-0.085 -4.675,-0.044 -6.875,0.073c-2.952,0.158 -5.712,0.458 -8.188,0.819c-7.247,1.058 -12.038,2.598 -12.038,2.598c-0.158,0.045 -0.251,0.21 -0.206,0.368c0.044,0.159 0.209,0.252 0.368,0.207Z" style="fill:#2b2723;"/><path d="M123.793,41.684c0,0 5.95,5.196 17.301,9.846c3.665,1.501 7.892,2.941 12.662,4.123c3.372,0.835 7.015,1.544 10.921,2.04c3.487,0.443 7.185,0.723 11.082,0.776c6.77,0.094 14.144,-0.472 22.078,-1.914c9.721,-1.766 20.278,-4.887 31.626,-9.758c0.152,-0.063 0.225,-0.238 0.162,-0.391c-0.063,-0.152 -0.237,-0.225 -0.39,-0.162c-11.401,4.501 -21.972,7.242 -31.66,8.763c-7.848,1.233 -15.113,1.632 -21.78,1.484c-3.826,-0.085 -7.453,-0.343 -10.881,-0.743c-3.839,-0.448 -7.427,-1.064 -10.756,-1.805c-4.718,-1.049 -8.914,-2.336 -12.566,-3.689c-11.337,-4.199 -17.417,-9.029 -17.417,-9.029c-0.126,-0.105 -0.315,-0.088 -0.421,0.038c-0.105,0.127 -0.088,0.316 0.039,0.421Z" style="fill:#2b2723;"/><path d="M213.548,178.953c0,0 -4.389,2.82 -9.595,7.433c-4.098,3.632 -8.698,8.37 -12.079,13.698c-1.889,2.976 -3.392,6.139 -4.234,9.389c-0.886,3.416 -1.03,6.93 -0.155,10.436c1.086,4.204 3.001,7.766 5.449,10.955c2.416,3.148 5.345,5.932 8.444,8.648c5.784,5.069 12.177,9.894 16.902,16.522c3.534,4.958 6.141,10.918 6.857,18.749c0.013,0.165 0.156,0.288 0.321,0.275c0.164,-0.012 0.288,-0.156 0.275,-0.321c-0.502,-8.033 -2.995,-14.211 -6.478,-19.379c-4.608,-6.839 -10.95,-11.903 -16.706,-17.154c-2.955,-2.696 -5.748,-5.442 -8.064,-8.519c-2.263,-3.007 -4.074,-6.33 -5.078,-10.269c-0.838,-3.179 -0.72,-6.373 0.031,-9.494c0.745,-3.094 2.111,-6.115 3.825,-8.983c3.169,-5.304 7.518,-10.08 11.405,-13.774c4.992,-4.745 9.213,-7.716 9.213,-7.716c0.137,-0.092 0.173,-0.277 0.081,-0.414c-0.092,-0.137 -0.278,-0.174 -0.414,-0.082Z" style="fill:#2b2723;"/></g></svg>