<?xml version="1.0" encoding="UTF-8" standalone="no"?><!DOCTYPE svg PUBLIC "-//W3C//DTD SVG 1.1//EN" "http://www.w3.org/Graphics/SVG/1.1/DTD/svg11.dtd"><svg width="100%" height="100%" viewBox="0 0 263 83" version="1.1" xmlns="http://www.w3.org/2000/svg" xmlns:xlink="http://www.w3.org/1999/xlink" xml:space="preserve" xmlns:serif="http://www.serif.com/" style="fill-rule:evenodd;clip-rule:evenodd;stroke-linejoin:round;stroke-miterlimit:2;"><g id="Title"><g id="Ms.-Laura" serif:id="Ms. Laura"><path d="M39.091,35.123c-0.034,0.72 -0.308,1.32 -0.823,1.8c-0.514,0.481 -1.131,0.703 -1.851,0.669c-0.72,-0.034 -1.321,-0.308 -1.801,-0.823c-0.48,-0.514 -0.703,-1.131 -0.668,-1.852c0.137,-1.028 0.188,-5.126 0.154,-12.293c-0.034,-7.166 -0.051,-11.264 -0.051,-12.293c-2.641,3.429 -5.693,7.818 -9.156,13.168c-0.377,0.617 -0.917,0.994 -1.62,1.131c-0.703,0.138 -1.346,0.018 -1.929,-0.36c-0.034,-0.034 -0.069,-0.051 -0.103,-0.051c-0.308,-0.206 -0.566,-0.446 -0.771,-0.72c-1.441,-2.023 -3.875,-5.092 -7.304,-9.207l-3.344,-4.012c0.103,2.572 0.155,5.521 0.155,8.847c0,1.646 -0.026,4.235 -0.077,7.767c-0.052,3.531 -0.078,6.206 -0.078,8.023c0,0.721 -0.248,1.329 -0.745,1.826c-0.498,0.498 -1.106,0.746 -1.826,0.746c-0.72,0 -1.329,-0.248 -1.826,-0.746c-0.498,-0.497 -0.746,-1.105 -0.746,-1.826c0,-1.817 0.026,-4.492 0.077,-8.023c0.051,-3.532 0.077,-6.138 0.077,-7.819c0,-6.412 -0.206,-11.573 -0.617,-15.482c-0.069,-0.72 0.12,-1.354 0.566,-1.903c0.446,-0.549 1.028,-0.857 1.749,-0.926c0.342,-0.034 0.668,0 0.977,0.103c0.788,0.034 1.44,0.36 1.954,0.977l7.664,9.104c2.161,2.572 3.978,4.818 5.452,6.739c4.595,-6.996 8.59,-12.328 11.985,-15.997c0.137,-0.137 0.274,-0.257 0.411,-0.36c0.549,-0.514 1.183,-0.754 1.904,-0.72c0.72,0.034 1.32,0.309 1.8,0.823c0.48,0.514 0.703,1.131 0.668,1.852c-0.137,3.6 -0.18,8.941 -0.128,16.022c0.051,7.081 0.008,12.353 -0.129,15.816Z" style="fill-rule:nonzero;"/><path d="M52.825,37.541c-2.538,-0.446 -4.372,-1.475 -5.504,-3.086c-0.549,-0.721 -0.943,-1.681 -1.183,-2.881l-0.206,-1.131c-0.068,-0.343 -0.137,-0.618 -0.206,-0.823c-0.205,-0.652 -0.137,-1.286 0.206,-1.904c0.343,-0.617 0.857,-1.011 1.543,-1.183c0.686,-0.171 1.338,-0.102 1.955,0.206c0.617,0.309 1.029,0.806 1.234,1.492c0.103,0.377 0.206,0.806 0.309,1.286c0.034,0.171 0.06,0.334 0.077,0.488c0.017,0.155 0.077,0.42 0.18,0.798c0.103,0.445 0.343,0.823 0.72,1.131c0.412,0.377 1.029,0.617 1.852,0.72c1.372,0.275 2.846,0.24 4.423,-0.103c1.543,-0.342 2.744,-0.84 3.601,-1.491c0.617,-0.549 0.874,-1.115 0.771,-1.698c-0.102,-0.96 -0.703,-1.68 -1.8,-2.16c-0.686,-0.308 -2.469,-0.72 -5.349,-1.234c-2.983,-0.583 -5.092,-1.338 -6.327,-2.263c-2.263,-1.681 -3,-4.184 -2.211,-7.51c0.48,-1.92 1.465,-3.335 2.957,-4.244c1.492,-0.908 3.146,-1.414 4.964,-1.517c1.543,-0.068 3.111,0.112 4.706,0.54c1.594,0.429 2.958,1.02 4.089,1.775c0.377,0.274 0.772,0.6 1.183,0.977c0.412,0.377 0.815,0.789 1.209,1.234c0.394,0.446 0.626,0.686 0.694,0.721c0.515,0.514 0.772,1.105 0.772,1.774c0,0.669 -0.249,1.252 -0.746,1.749c-0.497,0.497 -1.097,0.746 -1.8,0.746c-0.703,0 -1.312,-0.24 -1.826,-0.72c-0.343,-0.309 -0.686,-0.635 -1.029,-0.978l-0.72,-0.874c-0.206,-0.172 -0.446,-0.343 -0.72,-0.514c-0.652,-0.412 -1.492,-0.763 -2.521,-1.055c-1.028,-0.291 -2.04,-0.42 -3.034,-0.386c-1.818,0.103 -2.863,0.738 -3.138,1.903c-0.308,1.235 -0.206,2.041 0.309,2.418c0.617,0.446 2.006,0.892 4.166,1.337c3.189,0.549 5.367,1.08 6.532,1.595c2.812,1.269 4.407,3.309 4.784,6.121c0.309,2.297 -0.549,4.286 -2.572,5.966c-1.543,1.269 -3.497,2.143 -5.863,2.623c-2.264,0.515 -4.424,0.566 -6.481,0.155Z" style="fill-rule:nonzero;"/><path d="M76.485,32.449c0.617,0.583 0.926,1.277 0.926,2.083c0,0.806 -0.292,1.5 -0.875,2.083c-0.582,0.583 -1.285,0.874 -2.108,0.874c-0.823,0 -1.518,-0.291 -2.084,-0.874c-0.565,-0.583 -0.848,-1.277 -0.848,-2.083c0,-0.806 0.283,-1.5 0.848,-2.083c0.566,-0.583 1.261,-0.875 2.084,-0.875c0.823,0 1.508,0.292 2.057,0.875Z" style="fill-rule:nonzero;"/><path d="M110.484,37.644c-4.458,0.068 -7.63,0.051 -9.516,-0.052c-0.651,-0.034 -1.217,-0.283 -1.697,-0.746c-0.48,-0.463 -0.737,-1.037 -0.772,-1.723c-0.034,-0.171 -0.051,-0.326 -0.051,-0.463c-0.034,-1.954 -0.12,-6.566 -0.257,-13.836c-0.137,-7.269 -0.206,-13.202 -0.206,-17.797c0,-0.72 0.249,-1.328 0.746,-1.826c0.497,-0.497 1.106,-0.745 1.826,-0.745c0.72,0 1.329,0.248 1.826,0.745c0.497,0.498 0.746,1.106 0.746,1.826c0,3.464 0.025,6.79 0.077,9.979c0.051,3.189 0.12,6.695 0.206,10.518c0.085,3.824 0.128,6.816 0.128,8.976c1.783,0.034 4.518,0.017 8.204,-0.051c3.686,-0.069 6.49,-0.086 8.41,-0.052c0.72,0 1.32,0.257 1.8,0.772c0.48,0.514 0.72,1.131 0.72,1.851c0,0.72 -0.257,1.321 -0.771,1.801c-0.515,0.48 -1.132,0.72 -1.852,0.72c-1.852,-0.035 -5.041,0 -9.567,0.103Z" style="fill-rule:nonzero;"/><path d="M128.538,35.998c-0.274,0.685 -0.746,1.166 -1.415,1.44c-0.668,0.274 -1.337,0.274 -2.006,0c-0.668,-0.274 -1.14,-0.746 -1.414,-1.415c-0.274,-0.668 -0.274,-1.328 0,-1.98c0.686,-1.68 1.586,-4.235 2.7,-7.664c1.115,-3.429 1.912,-5.743 2.392,-6.944c0.24,-0.685 1.217,-3.12 2.932,-7.304c1.612,-4.114 2.863,-7.458 3.755,-10.029c0.24,-0.686 0.677,-1.192 1.311,-1.518c0.635,-0.326 1.295,-0.368 1.981,-0.128c0.308,0.102 0.582,0.257 0.823,0.463c0.685,0.24 1.165,0.702 1.44,1.388l12.807,31.633c0.275,0.686 0.275,1.363 0,2.032c-0.274,0.669 -0.746,1.14 -1.414,1.414c-0.669,0.275 -1.338,0.275 -2.006,0c-0.669,-0.274 -1.14,-0.737 -1.415,-1.388l-3.857,-9.979c-1.406,0.069 -2.195,0.103 -2.366,0.103c-4.63,0.171 -8.264,0.257 -10.905,0.257c-1.543,4.527 -2.657,7.733 -3.343,9.619Zm5.246,-14.865c2.881,-0.035 5.967,-0.103 9.259,-0.206l-4.681,-11.316l-4.578,11.522Z" style="fill-rule:nonzero;"/><path d="M159.194,31.523c-0.995,-1.475 -1.664,-3.669 -2.006,-6.584c-0.206,-2.16 -0.258,-4.715 -0.155,-7.664c0.069,-1.92 0.215,-4.509 0.437,-7.767c0.223,-3.257 0.352,-5.366 0.386,-6.326c0,-0.72 0.257,-1.32 0.772,-1.801c0.514,-0.48 1.131,-0.72 1.851,-0.72c0.72,0 1.321,0.258 1.801,0.772c0.48,0.514 0.72,1.131 0.72,1.852c-0.035,0.925 -0.163,3.034 -0.386,6.326c-0.223,3.292 -0.369,5.898 -0.437,7.818c-0.103,2.744 -0.052,5.058 0.154,6.944c0.206,2.092 0.566,3.515 1.08,4.269c1.2,1.715 2.829,2.855 4.887,3.421c2.057,0.566 4.106,0.488 6.146,-0.232c2.04,-0.72 3.626,-1.954 4.758,-3.703c1.852,-2.743 2.829,-6.498 2.932,-11.264c0.034,-1.715 -0.017,-3.978 -0.155,-6.79c-0.205,-3.635 -0.325,-5.898 -0.36,-6.789c0,-0.721 0.24,-1.338 0.721,-1.852c0.48,-0.514 1.08,-0.772 1.8,-0.772c0.72,0 1.337,0.24 1.851,0.72c0.515,0.481 0.772,1.081 0.772,1.801c0.034,0.823 0.137,3.017 0.309,6.583c0.171,2.949 0.24,5.367 0.205,7.253c-0.137,5.726 -1.388,10.39 -3.754,13.99c-1.303,1.955 -3.044,3.498 -5.221,4.63c-2.178,1.131 -4.415,1.766 -6.713,1.903c-2.297,0.137 -4.577,-0.3 -6.84,-1.312c-2.264,-1.011 -4.115,-2.58 -5.555,-4.706Z" style="fill-rule:nonzero;"/><path d="M219.116,32.089l-0.926,-2.572c-0.171,-0.686 -0.411,-1.415 -0.72,-2.186c-0.309,-0.772 -0.634,-1.415 -0.977,-1.929c-0.652,-0.926 -1.586,-1.655 -2.803,-2.186c-1.218,-0.532 -3.078,-0.866 -5.581,-1.003c-0.343,0 -0.686,0.017 -1.029,0.051c-0.343,0 -1.02,0.052 -2.032,0.155c-1.011,0.102 -1.74,0.171 -2.186,0.205c-0.96,0.103 -1.68,0.12 -2.16,0.052c0.069,5.006 0.103,9.087 0.103,12.241c0,0.721 -0.249,1.329 -0.746,1.826c-0.497,0.498 -1.106,0.746 -1.826,0.746c-0.72,0 -1.329,-0.248 -1.826,-0.746c-0.497,-0.497 -0.746,-1.105 -0.746,-1.826c0,-3.36 -0.042,-8.409 -0.128,-15.147c-0.086,-6.738 -0.129,-11.788 -0.129,-15.148c0,-0.583 0.189,-1.115 0.566,-1.595c0.103,-0.48 0.343,-0.891 0.72,-1.234c0.377,-0.343 0.823,-0.549 1.337,-0.617c1.955,-0.309 4.15,-0.489 6.584,-0.54c2.435,-0.052 5.264,0.128 8.487,0.54c1.166,0.171 2.255,0.403 3.266,0.694c1.012,0.292 2.075,0.72 3.189,1.286c1.115,0.566 2.058,1.217 2.829,1.955c0.772,0.737 1.398,1.663 1.878,2.777c0.48,1.114 0.685,2.358 0.617,3.729c-0.137,3.738 -2.298,6.532 -6.481,8.384c0.891,0.686 1.663,1.509 2.315,2.469c0.48,0.72 0.943,1.612 1.388,2.675c0.446,1.063 0.798,2.014 1.055,2.854c0.257,0.841 0.583,1.912 0.977,3.215c0.394,1.303 0.712,2.349 0.952,3.138c0.205,0.651 0.137,1.294 -0.206,1.929c-0.343,0.634 -0.849,1.054 -1.518,1.26c-0.668,0.205 -1.32,0.137 -1.954,-0.206c-0.634,-0.343 -1.055,-0.857 -1.26,-1.543l-1.029,-3.703Zm-17.848,-14.968c0.24,-0.035 0.531,-0.052 0.874,-0.052c0.549,-0.034 1.269,-0.051 2.161,-0.051c1.714,-0.034 2.811,-0.034 3.291,0l0.515,0c2.983,-0.206 5.435,-0.669 7.355,-1.389c2.778,-0.994 4.201,-2.4 4.269,-4.218c0.103,-2.606 -2.383,-4.337 -7.458,-5.195c-3.498,-0.583 -7.407,-0.651 -11.727,-0.205c0,2.88 0.034,6.618 0.103,11.213l0.617,-0.103Z" style="fill-rule:nonzero;"/><path d="M232.952,35.998c-0.274,0.685 -0.746,1.166 -1.414,1.44c-0.669,0.274 -1.338,0.274 -2.006,0c-0.669,-0.274 -1.14,-0.746 -1.415,-1.415c-0.274,-0.668 -0.274,-1.328 0,-1.98c0.686,-1.68 1.586,-4.235 2.701,-7.664c1.114,-3.429 1.911,-5.743 2.391,-6.944c0.24,-0.685 1.218,-3.12 2.932,-7.304c1.612,-4.114 2.863,-7.458 3.755,-10.029c0.24,-0.686 0.677,-1.192 1.312,-1.518c0.634,-0.326 1.294,-0.368 1.98,-0.128c0.309,0.102 0.583,0.257 0.823,0.463c0.686,0.24 1.166,0.702 1.44,1.388l12.808,31.633c0.274,0.686 0.274,1.363 0,2.032c-0.275,0.669 -0.746,1.14 -1.415,1.414c-0.669,0.275 -1.337,0.275 -2.006,0c-0.669,-0.274 -1.14,-0.737 -1.414,-1.388l-3.858,-9.979c-1.406,0.069 -2.195,0.103 -2.366,0.103c-4.629,0.171 -8.264,0.257 -10.904,0.257c-1.544,4.527 -2.658,7.733 -3.344,9.619Zm5.247,-14.865c2.88,-0.035 5.966,-0.103 9.258,-0.206l-4.681,-11.316l-4.577,11.522Z" style="fill-rule:nonzero;"/></g><g id="welcome"><path d="M8.616,68.174c-0.665,-0.183 -1.067,-0.619 -1.205,-1.308c-0.069,-0.138 -0.126,-0.287 -0.172,-0.448c-1.446,-6.588 -3.214,-13.52 -5.303,-20.797c-0.137,-0.459 -0.091,-0.896 0.138,-1.309c0.23,-0.413 0.574,-0.688 1.033,-0.826c0.459,-0.138 0.895,-0.092 1.309,0.138c0.413,0.229 0.688,0.573 0.826,1.033c1.469,5.187 2.824,10.628 4.063,16.321l2.686,-8.126c1.171,-3.375 2.043,-5.969 2.617,-7.782c0.023,-0.368 0.143,-0.695 0.361,-0.982c0.219,-0.287 0.511,-0.487 0.878,-0.602c0.069,-0.046 0.173,-0.069 0.31,-0.069c0.138,0 0.299,0.023 0.482,0.069c0.368,0.115 0.66,0.321 0.878,0.62c0.219,0.298 0.328,0.631 0.328,0.998c1.584,4.867 3.386,10.445 5.406,16.735l4.958,-17.32c0.138,-0.459 0.419,-0.804 0.844,-1.033c0.424,-0.23 0.86,-0.276 1.308,-0.138c0.448,0.138 0.786,0.419 1.016,0.844c0.229,0.424 0.275,0.855 0.138,1.291l-6.474,21.521c-0.138,0.436 -0.419,0.769 -0.843,0.998c-0.425,0.23 -0.867,0.276 -1.326,0.138c-0.413,-0.138 -0.735,-0.39 -0.964,-0.758c-0.161,-0.183 -0.287,-0.39 -0.379,-0.619c-2.043,-6.106 -3.857,-11.639 -5.44,-16.597l-1.275,4.614l-1.515,4.304l-1.239,3.753c-0.505,1.538 -0.941,2.927 -1.309,4.167c-0.137,0.459 -0.413,0.803 -0.826,1.033c-0.413,0.229 -0.849,0.275 -1.309,0.137Z" style="fill-rule:nonzero;"/><path d="M41.225,68.381c-1.699,-0.115 -3.18,-0.459 -4.442,-1.033c-1.263,-0.574 -2.227,-1.297 -2.892,-2.169c-0.666,-0.873 -1.148,-1.676 -1.447,-2.411c-0.298,-0.734 -0.482,-1.463 -0.551,-2.186c-0.068,-0.723 -0.034,-1.659 0.104,-2.806c0.16,-0.965 0.499,-1.917 1.015,-2.858c0.517,-0.942 1.206,-1.785 2.066,-2.531c0.861,-0.746 1.9,-1.32 3.117,-1.722c1.216,-0.402 2.513,-0.522 3.891,-0.361c1.331,0.16 2.467,0.522 3.409,1.084c0.941,0.563 1.744,1.28 2.41,2.152c0.574,0.735 0.924,1.286 1.05,1.653c0.126,0.367 0.241,0.712 0.344,1.033c0.104,0.321 0.19,0.597 0.259,0.827c0.069,0.229 0.132,0.464 0.189,0.705c0.057,0.241 0.098,0.523 0.121,0.844c0.023,0.436 -0.058,0.838 -0.241,1.205c-0.184,0.367 -0.46,0.654 -0.827,0.861c-0.298,0.115 -0.62,0.172 -0.964,0.172l-5.888,0.103c-4.132,0.023 -6.198,0.069 -6.198,0.138l-0.103,0c0.298,1.171 0.924,2.089 1.876,2.755c0.953,0.666 2.256,1.056 3.908,1.171c0.896,0.046 1.642,0 2.239,-0.138c0.665,-0.184 1.147,-0.35 1.446,-0.499c0.298,-0.15 0.665,-0.35 1.102,-0.603c0.436,-0.161 0.872,-0.138 1.308,0.069c0.436,0.206 0.735,0.528 0.895,0.964c0.161,0.436 0.144,0.861 -0.051,1.274c-0.195,0.413 -0.5,0.735 -0.913,0.964c-0.367,0.207 -0.746,0.385 -1.136,0.534c-0.39,0.149 -0.964,0.327 -1.722,0.534c-0.757,0.206 -1.882,0.298 -3.374,0.275Zm-5.51,-10.674c1.332,-0.069 4.787,-0.138 10.365,-0.207c-0.207,-0.689 -0.54,-1.343 -0.999,-1.963c-0.918,-1.056 -2.054,-1.664 -3.409,-1.825c-1.423,-0.183 -2.674,0.121 -3.753,0.913c-1.079,0.792 -1.813,1.819 -2.204,3.082Z" style="fill-rule:nonzero;"/><path d="M56.41,66.556c-0.023,0.482 -0.207,0.884 -0.551,1.205c-0.344,0.322 -0.758,0.471 -1.24,0.448c-0.482,-0.023 -0.883,-0.207 -1.205,-0.551c-0.321,-0.344 -0.47,-0.758 -0.447,-1.24c0.091,-3.053 0.137,-5.371 0.137,-6.955c0,-1.584 -0.023,-3.949 -0.069,-7.093c-0.045,-3.145 -0.068,-5.51 -0.068,-7.094c0,-0.482 0.166,-0.889 0.499,-1.222c0.333,-0.333 0.74,-0.499 1.222,-0.499c0.482,0 0.89,0.166 1.223,0.499c0.332,0.333 0.499,0.74 0.499,1.222c0,1.584 0.023,3.834 0.069,6.749c0.046,2.916 0.063,5.561 0.051,7.937c-0.011,2.376 -0.051,4.574 -0.12,6.594Z" style="fill-rule:nonzero;"/><path d="M68.668,68.278c-1.308,0.023 -2.588,-0.207 -3.839,-0.689c-1.251,-0.482 -2.278,-1.182 -3.082,-2.1c-0.826,-0.964 -1.372,-2.118 -1.636,-3.461c-0.264,-1.343 -0.275,-2.623 -0.034,-3.839c0.241,-1.217 0.649,-2.388 1.222,-3.512c0.46,-0.85 1.01,-1.613 1.653,-2.29c0.643,-0.677 1.395,-1.251 2.256,-1.722c0.86,-0.47 1.779,-0.723 2.754,-0.757c0.976,-0.035 2.026,0.177 3.151,0.637c0.597,0.275 1.205,0.711 1.825,1.308l1.102,1.102c0.367,0.298 0.574,0.689 0.62,1.171c0.045,0.482 -0.087,0.901 -0.396,1.256c-0.31,0.356 -0.706,0.557 -1.188,0.603c-0.482,0.046 -0.896,-0.092 -1.24,-0.413c-0.207,-0.161 -0.448,-0.379 -0.723,-0.654l-0.585,-0.586c-0.322,-0.321 -0.586,-0.528 -0.792,-0.62c-1.033,-0.459 -2.02,-0.453 -2.962,0.018c-0.941,0.47 -1.744,1.325 -2.41,2.565c-0.689,1.285 -1.027,2.571 -1.016,3.856c0.012,1.286 0.35,2.308 1.016,3.065c0.413,0.482 1.01,0.872 1.791,1.171c0.78,0.298 1.606,0.447 2.479,0.447c1.767,-0.045 2.904,-0.677 3.409,-1.893l-0.035,-0.173l0,-0.998c0.023,-0.482 0.213,-0.878 0.568,-1.188c0.356,-0.31 0.775,-0.453 1.257,-0.431c0.482,0.023 0.878,0.213 1.188,0.569c0.31,0.355 0.453,0.774 0.431,1.256l0,0.758c0.022,0.574 -0.058,1.079 -0.242,1.515c-0.527,1.331 -1.394,2.33 -2.599,2.996c-1.205,0.665 -2.52,1.01 -3.943,1.033Z" style="fill-rule:nonzero;"/><path d="M88.261,67.968c-3.03,0.734 -5.452,0.126 -7.266,-1.825c-1.446,-1.492 -2.341,-3.409 -2.686,-5.75c-0.252,-1.837 -0.034,-3.582 0.655,-5.234c0.826,-2.112 2.135,-3.673 3.925,-4.683c0.367,-0.207 0.827,-0.356 1.377,-0.448c0.023,0 0.184,-0.011 0.483,-0.034c0.114,-0.023 0.206,-0.046 0.275,-0.069c0.344,-0.069 0.689,-0.035 1.033,0.103c0.092,0 0.31,0.006 0.654,0.017c0.345,0.012 0.574,0.023 0.689,0.035c0.115,0.011 0.316,0.034 0.602,0.069c0.287,0.034 0.523,0.074 0.706,0.12l0.655,0.241c0.275,0.092 0.539,0.207 0.792,0.345c0.252,0.137 0.528,0.298 0.826,0.482c1.492,1.01 2.525,2.427 3.099,4.252c0.574,1.825 0.723,3.3 0.448,4.425c-0.207,1.239 -0.574,2.393 -1.102,3.46c-0.528,1.068 -1.257,2.015 -2.187,2.841c-0.93,0.826 -1.922,1.377 -2.978,1.653Zm-1.068,-3.581c0.987,-0.138 1.831,-0.649 2.531,-1.532c0.7,-0.884 1.159,-1.82 1.377,-2.807c0.219,-0.987 0.138,-2.072 -0.241,-3.254c-0.378,-1.182 -0.981,-2.037 -1.807,-2.565c-0.253,-0.184 -0.459,-0.316 -0.62,-0.396c-0.161,-0.08 -0.35,-0.149 -0.568,-0.207c-0.218,-0.057 -0.391,-0.086 -0.517,-0.086c-0.126,0 -0.396,-0.011 -0.809,-0.034c-0.413,-0.023 -0.78,-0.046 -1.102,-0.069c-0.069,0 -0.149,-0.011 -0.241,-0.034c-0.252,0.023 -0.39,0.034 -0.413,0.034l-0.241,0.069c-1.01,0.551 -1.785,1.429 -2.324,2.634c-0.54,1.205 -0.695,2.451 -0.465,3.736c0.252,1.561 0.815,2.743 1.687,3.547c0.941,0.872 2.192,1.193 3.753,0.964Z" style="fill-rule:nonzero;"/><path d="M119.354,66.694c-0.023,-0.413 -0.052,-0.798 -0.086,-1.154c-0.035,-0.356 -0.058,-0.619 -0.069,-0.792c-0.011,-0.172 -0.023,-0.321 -0.034,-0.447c-0.012,-0.127 -0.018,-0.27 -0.018,-0.431l0,-1.962c0,-0.368 0.018,-1.016 0.052,-1.946c0.034,-0.93 0.046,-1.716 0.034,-2.359c-0.011,-0.642 -0.074,-1.251 -0.189,-1.825c-0.138,-0.803 -0.379,-1.383 -0.723,-1.738c-0.344,-0.356 -0.872,-0.534 -1.584,-0.534c-1.584,0.023 -3.168,0.987 -4.752,2.892c0.069,0.689 0.104,2.02 0.104,3.995c0,1.446 0.034,3.466 0.103,6.06c0.023,0.459 -0.132,0.861 -0.465,1.205c-0.333,0.344 -0.735,0.528 -1.205,0.551c-0.471,0.023 -0.878,-0.132 -1.223,-0.465c-0.344,-0.333 -0.528,-0.74 -0.55,-1.222c-0.069,-2.594 -0.104,-4.637 -0.104,-6.129l0,-1.722c0,-0.115 -0.006,-0.356 -0.017,-0.723c-0.011,-0.368 -0.023,-0.637 -0.034,-0.809c-0.012,-0.173 -0.035,-0.402 -0.069,-0.689c-0.035,-0.287 -0.069,-0.54 -0.104,-0.758c-0.034,-0.218 -0.086,-0.43 -0.155,-0.637c-0.183,-0.642 -0.436,-1.09 -0.757,-1.343c-0.344,-0.275 -0.861,-0.378 -1.55,-0.309c-0.757,0.068 -1.411,0.275 -1.962,0.619c-0.528,0.345 -1.068,0.896 -1.619,1.653c-0.114,0.138 -0.241,0.264 -0.378,0.379c0.091,4.591 0.091,8.092 0,10.502c-0.023,0.482 -0.207,0.884 -0.551,1.205c-0.345,0.322 -0.758,0.471 -1.24,0.448c-0.482,-0.023 -0.884,-0.207 -1.205,-0.551c-0.321,-0.344 -0.471,-0.758 -0.448,-1.24c0.046,-2.548 0.069,-4.183 0.069,-4.906c0,-0.723 -0.029,-2.388 -0.086,-4.993c-0.057,-2.606 -0.086,-4.276 -0.086,-5.01c0,-0.345 0.166,-0.689 0.499,-1.033c0.333,-0.345 0.729,-0.517 1.188,-0.517c0.459,0 0.872,0.144 1.24,0.431c0.367,0.287 0.539,0.82 0.516,1.601c1.033,-1.217 2.296,-1.894 3.788,-2.032c1.584,-0.137 2.904,0.218 3.96,1.068c0.551,0.436 1.044,1.044 1.48,1.825c1.424,-1.791 3.295,-2.755 5.613,-2.893c1.699,-0.023 3.065,0.505 4.098,1.584c0.803,0.941 1.342,2.147 1.618,3.616c0.115,0.688 0.184,1.44 0.207,2.255c0.023,0.815 0.017,1.733 -0.018,2.755c-0.034,1.021 -0.051,1.601 -0.051,1.739l0,1.893c0,0.115 0.005,0.23 0.017,0.345c0.011,0.115 0.023,0.247 0.034,0.396c0.012,0.149 0.029,0.396 0.052,0.74c0.023,0.344 0.057,0.723 0.103,1.136c0.023,0.482 -0.12,0.901 -0.43,1.257c-0.31,0.356 -0.7,0.551 -1.171,0.586c-0.47,0.034 -0.884,-0.104 -1.239,-0.414c-0.356,-0.31 -0.557,-0.694 -0.603,-1.153Z" style="fill-rule:nonzero;"/><path d="M135.434,68.381c-1.698,-0.115 -3.179,-0.459 -4.442,-1.033c-1.262,-0.574 -2.226,-1.297 -2.892,-2.169c-0.666,-0.873 -1.148,-1.676 -1.446,-2.411c-0.299,-0.734 -0.482,-1.463 -0.551,-2.186c-0.069,-0.723 -0.035,-1.659 0.103,-2.806c0.161,-0.965 0.499,-1.917 1.016,-2.858c0.516,-0.942 1.205,-1.785 2.066,-2.531c0.861,-0.746 1.9,-1.32 3.116,-1.722c1.217,-0.402 2.514,-0.522 3.891,-0.361c1.332,0.16 2.468,0.522 3.409,1.084c0.941,0.563 1.745,1.28 2.41,2.152c0.574,0.735 0.924,1.286 1.051,1.653c0.126,0.367 0.241,0.712 0.344,1.033c0.103,0.321 0.189,0.597 0.258,0.827c0.069,0.229 0.132,0.464 0.19,0.705c0.057,0.241 0.097,0.523 0.12,0.844c0.023,0.436 -0.057,0.838 -0.241,1.205c-0.184,0.367 -0.459,0.654 -0.826,0.861c-0.299,0.115 -0.62,0.172 -0.964,0.172l-5.889,0.103c-4.132,0.023 -6.198,0.069 -6.198,0.138l-0.103,0c0.299,1.171 0.924,2.089 1.877,2.755c0.952,0.666 2.255,1.056 3.908,1.171c0.895,0.046 1.641,0 2.238,-0.138c0.666,-0.184 1.148,-0.35 1.446,-0.499c0.299,-0.15 0.666,-0.35 1.102,-0.603c0.436,-0.161 0.872,-0.138 1.309,0.069c0.436,0.206 0.734,0.528 0.895,0.964c0.161,0.436 0.143,0.861 -0.052,1.274c-0.195,0.413 -0.499,0.735 -0.912,0.964c-0.368,0.207 -0.746,0.385 -1.137,0.534c-0.39,0.149 -0.964,0.327 -1.721,0.534c-0.758,0.206 -1.883,0.298 -3.375,0.275Zm-5.509,-10.674c1.331,-0.069 4.786,-0.138 10.364,-0.207c-0.206,-0.689 -0.539,-1.343 -0.998,-1.963c-0.918,-1.056 -2.055,-1.664 -3.409,-1.825c-1.423,-0.183 -2.674,0.121 -3.753,0.913c-1.079,0.792 -1.814,1.819 -2.204,3.082Z" style="fill-rule:nonzero;"/></g><g id="to-the-class" serif:id="to the class"><path d="M154.085,67.606c-0.085,-0.029 -0.259,-0.071 -0.522,-0.128c-0.263,-0.057 -0.491,-0.121 -0.683,-0.192c-0.192,-0.071 -0.412,-0.174 -0.661,-0.31c-0.249,-0.135 -0.473,-0.32 -0.672,-0.554c-0.199,-0.235 -0.37,-0.516 -0.512,-0.843c-0.157,-0.384 -0.256,-1.137 -0.299,-2.261c-0.042,-0.867 -0.05,-1.984 -0.021,-3.349c0,-0.256 0.007,-0.682 0.021,-1.28l-0.17,0.022c-0.299,0.028 -0.562,-0.05 -0.79,-0.235c-0.227,-0.185 -0.359,-0.423 -0.394,-0.715c-0.036,-0.291 0.039,-0.551 0.224,-0.778c0.185,-0.228 0.419,-0.363 0.704,-0.406l0.49,-0.042c0.014,-0.754 0.036,-1.515 0.064,-2.283c0.014,-0.298 0.128,-0.547 0.342,-0.746c0.213,-0.199 0.469,-0.292 0.767,-0.278c0.299,0.015 0.548,0.128 0.747,0.342c0.199,0.213 0.292,0.469 0.277,0.768l-0.064,2.026l0.704,-0.043c0.299,-0.014 0.558,0.072 0.779,0.256c0.22,0.185 0.341,0.427 0.363,0.726c0.021,0.298 -0.061,0.558 -0.246,0.778c-0.185,0.221 -0.426,0.345 -0.725,0.374l-0.939,0.042c-0.014,0.683 -0.021,1.181 -0.021,1.493c-0.028,1.337 -0.021,2.425 0.021,3.264c0.029,0.853 0.072,1.344 0.128,1.472c0.057,0.128 0.1,0.217 0.128,0.267c0.029,0.049 0.082,0.099 0.16,0.149c0.079,0.05 0.16,0.082 0.246,0.096c0.085,0.014 0.245,0.053 0.48,0.117c0.234,0.064 0.487,0.146 0.757,0.246c0.27,0.085 0.473,0.259 0.608,0.522c0.135,0.263 0.156,0.533 0.064,0.811c-0.093,0.277 -0.27,0.483 -0.533,0.618c-0.264,0.135 -0.537,0.153 -0.822,0.054Z" style="fill-rule:nonzero;"/><path d="M162.682,67.52c-1.877,0.455 -3.378,0.079 -4.501,-1.13c-0.896,-0.925 -1.451,-2.112 -1.664,-3.562c-0.156,-1.138 -0.021,-2.219 0.405,-3.243c0.512,-1.308 1.323,-2.275 2.432,-2.901c0.228,-0.128 0.512,-0.22 0.853,-0.277c0.015,0 0.114,-0.007 0.299,-0.022c0.071,-0.014 0.128,-0.028 0.171,-0.042c0.213,-0.043 0.426,-0.022 0.64,0.064c0.056,0 0.192,0.003 0.405,0.01c0.213,0.008 0.355,0.015 0.427,0.022c0.071,0.007 0.195,0.021 0.373,0.042c0.178,0.022 0.323,0.047 0.437,0.075l0.405,0.149c0.171,0.057 0.335,0.128 0.491,0.214c0.156,0.085 0.327,0.185 0.512,0.298c0.924,0.626 1.564,1.504 1.92,2.635c0.355,1.13 0.448,2.044 0.277,2.741c-0.128,0.768 -0.355,1.482 -0.683,2.144c-0.327,0.661 -0.778,1.248 -1.354,1.759c-0.576,0.512 -1.191,0.854 -1.845,1.024Zm-0.661,-2.218c0.611,-0.085 1.134,-0.402 1.567,-0.949c0.434,-0.548 0.719,-1.127 0.854,-1.739c0.135,-0.611 0.085,-1.283 -0.15,-2.016c-0.234,-0.732 -0.608,-1.262 -1.12,-1.589c-0.156,-0.114 -0.284,-0.195 -0.384,-0.245c-0.099,-0.05 -0.216,-0.093 -0.352,-0.128c-0.135,-0.036 -0.241,-0.053 -0.319,-0.053c-0.079,0 -0.246,-0.008 -0.502,-0.022c-0.256,-0.014 -0.483,-0.028 -0.682,-0.042c-0.043,0 -0.093,-0.008 -0.15,-0.022c-0.156,0.014 -0.241,0.022 -0.256,0.022l-0.149,0.042c-0.626,0.342 -1.106,0.886 -1.44,1.632c-0.334,0.747 -0.43,1.518 -0.288,2.315c0.157,0.967 0.505,1.699 1.045,2.197c0.583,0.54 1.358,0.739 2.326,0.597Z" style="fill-rule:nonzero;"/><path d="M178.296,67.606c-0.085,-0.029 -0.259,-0.071 -0.522,-0.128c-0.263,-0.057 -0.491,-0.121 -0.683,-0.192c-0.192,-0.071 -0.412,-0.174 -0.661,-0.31c-0.249,-0.135 -0.473,-0.32 -0.672,-0.554c-0.199,-0.235 -0.37,-0.516 -0.512,-0.843c-0.157,-0.384 -0.256,-1.137 -0.299,-2.261c-0.042,-0.867 -0.05,-1.984 -0.021,-3.349c0,-0.256 0.007,-0.682 0.021,-1.28l-0.17,0.022c-0.299,0.028 -0.562,-0.05 -0.79,-0.235c-0.227,-0.185 -0.359,-0.423 -0.394,-0.715c-0.036,-0.291 0.039,-0.551 0.224,-0.778c0.185,-0.228 0.419,-0.363 0.704,-0.406l0.49,-0.042c0.014,-0.754 0.036,-1.515 0.064,-2.283c0.014,-0.298 0.128,-0.547 0.342,-0.746c0.213,-0.199 0.469,-0.292 0.767,-0.278c0.299,0.015 0.548,0.128 0.747,0.342c0.199,0.213 0.292,0.469 0.277,0.768l-0.064,2.026l0.704,-0.043c0.299,-0.014 0.558,0.072 0.779,0.256c0.22,0.185 0.341,0.427 0.363,0.726c0.021,0.298 -0.061,0.558 -0.246,0.778c-0.185,0.221 -0.426,0.345 -0.725,0.374l-0.939,0.042c-0.014,0.683 -0.021,1.181 -0.021,1.493c-0.028,1.337 -0.021,2.425 0.021,3.264c0.029,0.853 0.072,1.344 0.128,1.472c0.057,0.128 0.1,0.217 0.128,0.267c0.029,0.049 0.082,0.099 0.16,0.149c0.079,0.05 0.16,0.082 0.246,0.096c0.085,0.014 0.245,0.053 0.48,0.117c0.234,0.064 0.487,0.146 0.757,0.246c0.27,0.085 0.473,0.259 0.608,0.522c0.135,0.263 0.156,0.533 0.064,0.811c-0.093,0.277 -0.27,0.483 -0.533,0.618c-0.264,0.135 -0.537,0.153 -0.822,0.054Z" style="fill-rule:nonzero;"/><path d="M190.37,66.646c-0.014,0.298 -0.128,0.547 -0.342,0.746c-0.213,0.2 -0.465,0.295 -0.757,0.288c-0.291,-0.007 -0.537,-0.117 -0.736,-0.33c-0.199,-0.214 -0.298,-0.462 -0.298,-0.747c0,-0.014 0.042,-0.682 0.128,-2.005c0.085,-1.451 0.099,-2.553 0.042,-3.306c-0.128,-1.778 -0.782,-2.709 -1.962,-2.795c-0.626,-0.042 -1.141,0.054 -1.547,0.288c-0.405,0.235 -0.8,0.644 -1.184,1.227c-0.028,0.042 -0.085,0.142 -0.17,0.298c0.099,3.072 0.149,5.177 0.149,6.314c0,0.299 -0.103,0.552 -0.309,0.758c-0.206,0.206 -0.459,0.309 -0.757,0.309c-0.299,0 -0.552,-0.103 -0.758,-0.309c-0.206,-0.206 -0.309,-0.459 -0.309,-0.758c0,-0.654 -0.057,-2.865 -0.171,-6.634c-0.085,-2.829 -0.099,-5.076 -0.042,-6.74c0.014,-0.285 0.128,-0.53 0.341,-0.736c0.213,-0.206 0.466,-0.302 0.757,-0.288c0.292,0.014 0.541,0.128 0.747,0.341c0.206,0.213 0.302,0.469 0.288,0.768c-0.014,0.384 -0.022,1.87 -0.022,4.458c0.911,-1.052 1.977,-1.528 3.2,-1.429c2.361,0.199 3.655,1.785 3.882,4.757c0.043,0.825 0.054,1.543 0.032,2.154c-0.021,0.612 -0.06,1.287 -0.117,2.027c-0.057,0.739 -0.085,1.187 -0.085,1.344Z" style="fill-rule:nonzero;"/><path d="M198.369,67.776c-1.052,-0.071 -1.97,-0.284 -2.752,-0.64c-0.782,-0.355 -1.379,-0.803 -1.792,-1.343c-0.412,-0.541 -0.711,-1.039 -0.895,-1.494c-0.185,-0.455 -0.299,-0.906 -0.342,-1.354c-0.042,-0.448 -0.021,-1.028 0.064,-1.739c0.1,-0.597 0.31,-1.187 0.63,-1.77c0.319,-0.583 0.746,-1.106 1.279,-1.568c0.534,-0.462 1.177,-0.818 1.931,-1.067c0.754,-0.248 1.557,-0.323 2.41,-0.224c0.825,0.1 1.529,0.324 2.112,0.672c0.583,0.349 1.081,0.793 1.493,1.334c0.356,0.455 0.573,0.796 0.651,1.023c0.078,0.228 0.149,0.441 0.213,0.64c0.064,0.2 0.118,0.37 0.16,0.512c0.043,0.143 0.082,0.288 0.118,0.438c0.035,0.149 0.06,0.323 0.074,0.522c0.014,0.27 -0.035,0.519 -0.149,0.747c-0.114,0.227 -0.285,0.405 -0.512,0.533c-0.185,0.071 -0.384,0.107 -0.597,0.107l-3.648,0.064c-2.56,0.014 -3.84,0.042 -3.84,0.085l-0.064,0c0.185,0.725 0.573,1.294 1.163,1.707c0.59,0.412 1.397,0.654 2.421,0.725c0.555,0.028 1.017,0 1.387,-0.085c0.412,-0.114 0.711,-0.217 0.895,-0.31c0.185,-0.092 0.413,-0.217 0.683,-0.373c0.27,-0.1 0.54,-0.085 0.811,0.043c0.27,0.128 0.455,0.327 0.554,0.597c0.1,0.27 0.089,0.533 -0.032,0.789c-0.121,0.256 -0.309,0.455 -0.565,0.597c-0.228,0.128 -0.462,0.239 -0.704,0.331c-0.242,0.093 -0.597,0.203 -1.067,0.331c-0.469,0.128 -1.166,0.185 -2.09,0.17Zm-3.413,-6.612c0.825,-0.043 2.965,-0.086 6.421,-0.128c-0.128,-0.427 -0.334,-0.832 -0.619,-1.216c-0.569,-0.654 -1.273,-1.031 -2.112,-1.131c-0.881,-0.114 -1.656,0.075 -2.325,0.566c-0.668,0.49 -1.123,1.127 -1.365,1.909Z" style="fill-rule:nonzero;"/><path d="M216.522,67.712c-0.811,0.015 -1.603,-0.128 -2.379,-0.426c-0.775,-0.299 -1.411,-0.733 -1.909,-1.301c-0.512,-0.598 -0.849,-1.312 -1.013,-2.144c-0.163,-0.832 -0.171,-1.625 -0.021,-2.379c0.149,-0.753 0.402,-1.479 0.757,-2.175c0.284,-0.527 0.626,-0.999 1.024,-1.419c0.398,-0.42 0.864,-0.775 1.397,-1.067c0.533,-0.291 1.102,-0.448 1.707,-0.469c0.604,-0.021 1.255,0.11 1.951,0.395c0.37,0.17 0.747,0.441 1.131,0.81l0.683,0.683c0.227,0.185 0.355,0.427 0.384,0.725c0.028,0.299 -0.054,0.558 -0.246,0.779c-0.192,0.22 -0.437,0.345 -0.736,0.373c-0.298,0.029 -0.554,-0.057 -0.768,-0.256c-0.128,-0.099 -0.277,-0.235 -0.448,-0.405l-0.362,-0.363c-0.199,-0.199 -0.363,-0.327 -0.491,-0.384c-0.64,-0.284 -1.251,-0.281 -1.834,0.011c-0.583,0.291 -1.081,0.821 -1.493,1.589c-0.427,0.796 -0.637,1.593 -0.63,2.389c0.007,0.797 0.217,1.429 0.63,1.899c0.255,0.298 0.625,0.54 1.109,0.725c0.483,0.185 0.995,0.277 1.536,0.277c1.095,-0.028 1.799,-0.419 2.111,-1.173l-0.021,-0.107l0,-0.618c0.014,-0.299 0.132,-0.544 0.352,-0.736c0.22,-0.192 0.48,-0.281 0.779,-0.267c0.298,0.014 0.544,0.132 0.736,0.352c0.192,0.221 0.28,0.48 0.266,0.779l0,0.469c0.014,0.356 -0.035,0.668 -0.149,0.939c-0.327,0.824 -0.864,1.443 -1.611,1.855c-0.746,0.413 -1.56,0.626 -2.442,0.64Z" style="fill-rule:nonzero;"/><path d="M224.884,66.646c-0.014,0.298 -0.128,0.547 -0.342,0.746c-0.213,0.2 -0.469,0.292 -0.767,0.278c-0.299,-0.015 -0.548,-0.128 -0.747,-0.342c-0.199,-0.213 -0.292,-0.469 -0.277,-0.768c0.057,-1.891 0.085,-3.327 0.085,-4.308c0,-0.982 -0.014,-2.446 -0.043,-4.395c-0.028,-1.948 -0.042,-3.413 -0.042,-4.394c0,-0.299 0.103,-0.551 0.309,-0.757c0.206,-0.206 0.459,-0.309 0.757,-0.309c0.299,0 0.551,0.103 0.757,0.309c0.207,0.206 0.31,0.458 0.31,0.757c0,0.981 0.014,2.375 0.042,4.181c0.029,1.806 0.04,3.445 0.032,4.917c-0.007,1.472 -0.032,2.833 -0.074,4.085Z" style="fill-rule:nonzero;"/><path d="M233.395,67.328c-0.512,0.2 -1.091,0.313 -1.739,0.342c-0.647,0.028 -1.247,-0.046 -1.802,-0.224c-0.555,-0.178 -1.045,-0.452 -1.472,-0.822c-0.739,-0.611 -1.216,-1.372 -1.429,-2.282c-0.213,-0.91 -0.221,-1.728 -0.021,-2.453c0.199,-0.725 0.501,-1.433 0.906,-2.123c0.405,-0.689 0.846,-1.272 1.323,-1.749c0.476,-0.476 1.027,-0.878 1.653,-1.205c0.626,-0.327 1.28,-0.487 1.962,-0.48c0.683,0.007 1.401,0.196 2.155,0.565c0.114,0.057 0.238,0.143 0.373,0.256c0.135,0.114 0.253,0.214 0.352,0.299l0.277,0.277c0.086,0.086 0.128,0.135 0.128,0.15c0.228,0.199 0.349,0.455 0.363,0.768c0.185,0.853 0.306,1.749 0.363,2.687c0.057,0.939 0.074,1.821 0.053,2.645c-0.021,0.825 -0.011,1.7 0.032,2.624c0.014,0.285 -0.078,0.533 -0.277,0.747c-0.199,0.213 -0.448,0.327 -0.747,0.341c-0.299,0.014 -0.555,-0.078 -0.768,-0.277c-0.213,-0.199 -0.327,-0.441 -0.341,-0.726l0,-0.319c-0.427,0.44 -0.875,0.76 -1.344,0.959Zm-0.96,-1.919c0.213,-0.057 0.384,-0.114 0.512,-0.171c0.128,-0.057 0.288,-0.142 0.48,-0.256c0.192,-0.114 0.395,-0.256 0.608,-0.427c0.213,-0.17 0.405,-0.384 0.576,-0.64c0.028,-0.028 0.064,-0.056 0.107,-0.085c0,-1.92 -0.121,-3.463 -0.363,-4.629l-0.245,-0.277c-0.022,-0.029 -0.05,-0.053 -0.086,-0.075c-0.035,-0.021 -0.074,-0.046 -0.117,-0.074c-0.683,-0.37 -1.401,-0.381 -2.155,-0.032c-0.753,0.348 -1.415,0.999 -1.983,1.951c-0.569,0.967 -0.85,1.81 -0.843,2.528c0.007,0.718 0.281,1.312 0.821,1.781c0.327,0.271 0.733,0.441 1.216,0.512c0.484,0.071 0.974,0.036 1.472,-0.106Z" style="fill-rule:nonzero;"/><path d="M241.821,67.67c-1.053,-0.185 -1.813,-0.612 -2.283,-1.28c-0.227,-0.299 -0.391,-0.697 -0.49,-1.195l-0.086,-0.469c-0.028,-0.142 -0.056,-0.256 -0.085,-0.341c-0.085,-0.27 -0.057,-0.534 0.085,-0.79c0.143,-0.256 0.356,-0.419 0.64,-0.49c0.285,-0.071 0.555,-0.043 0.811,0.085c0.256,0.128 0.427,0.334 0.512,0.619c0.043,0.156 0.085,0.334 0.128,0.533c0.014,0.071 0.025,0.139 0.032,0.203c0.007,0.064 0.032,0.174 0.075,0.33c0.042,0.185 0.142,0.342 0.298,0.47c0.171,0.156 0.427,0.256 0.768,0.298c0.569,0.114 1.18,0.1 1.835,-0.042c0.64,-0.143 1.137,-0.349 1.493,-0.619c0.256,-0.228 0.362,-0.462 0.32,-0.704c-0.043,-0.398 -0.292,-0.697 -0.747,-0.896c-0.284,-0.128 -1.024,-0.299 -2.218,-0.512c-1.237,-0.242 -2.112,-0.554 -2.624,-0.938c-0.939,-0.697 -1.244,-1.735 -0.917,-3.115c0.199,-0.796 0.608,-1.383 1.226,-1.76c0.619,-0.376 1.305,-0.586 2.059,-0.629c0.64,-0.028 1.29,0.046 1.952,0.224c0.661,0.178 1.226,0.423 1.695,0.736c0.157,0.114 0.32,0.249 0.491,0.405c0.171,0.157 0.338,0.327 0.501,0.512c0.164,0.185 0.26,0.285 0.288,0.299c0.214,0.213 0.32,0.459 0.32,0.736c0,0.277 -0.103,0.519 -0.309,0.725c-0.206,0.206 -0.455,0.309 -0.747,0.309c-0.291,0 -0.544,-0.099 -0.757,-0.298c-0.142,-0.128 -0.284,-0.263 -0.427,-0.406l-0.298,-0.362c-0.086,-0.071 -0.185,-0.142 -0.299,-0.213c-0.27,-0.171 -0.618,-0.317 -1.045,-0.438c-0.427,-0.121 -0.846,-0.174 -1.259,-0.16c-0.753,0.043 -1.187,0.306 -1.301,0.79c-0.128,0.511 -0.085,0.846 0.128,1.002c0.256,0.185 0.832,0.37 1.728,0.555c1.323,0.227 2.226,0.448 2.709,0.661c1.166,0.526 1.827,1.372 1.984,2.538c0.128,0.953 -0.228,1.778 -1.067,2.475c-0.64,0.526 -1.45,0.889 -2.431,1.088c-0.939,0.213 -1.835,0.234 -2.688,0.064Z" style="fill-rule:nonzero;"/><path d="M252.38,67.67c-1.053,-0.185 -1.813,-0.612 -2.283,-1.28c-0.227,-0.299 -0.391,-0.697 -0.49,-1.195l-0.086,-0.469c-0.028,-0.142 -0.056,-0.256 -0.085,-0.341c-0.085,-0.27 -0.057,-0.534 0.085,-0.79c0.143,-0.256 0.356,-0.419 0.64,-0.49c0.285,-0.071 0.555,-0.043 0.811,0.085c0.256,0.128 0.427,0.334 0.512,0.619c0.043,0.156 0.085,0.334 0.128,0.533c0.014,0.071 0.025,0.139 0.032,0.203c0.007,0.064 0.032,0.174 0.075,0.33c0.042,0.185 0.142,0.342 0.298,0.47c0.171,0.156 0.427,0.256 0.768,0.298c0.569,0.114 1.18,0.1 1.835,-0.042c0.64,-0.143 1.137,-0.349 1.493,-0.619c0.256,-0.228 0.362,-0.462 0.32,-0.704c-0.043,-0.398 -0.292,-0.697 -0.747,-0.896c-0.284,-0.128 -1.024,-0.299 -2.218,-0.512c-1.238,-0.242 -2.112,-0.554 -2.624,-0.938c-0.939,-0.697 -1.244,-1.735 -0.917,-3.115c0.199,-0.796 0.608,-1.383 1.226,-1.76c0.619,-0.376 1.305,-0.586 2.059,-0.629c0.64,-0.028 1.29,0.046 1.952,0.224c0.661,0.178 1.226,0.423 1.695,0.736c0.157,0.114 0.32,0.249 0.491,0.405c0.171,0.157 0.338,0.327 0.501,0.512c0.164,0.185 0.26,0.285 0.288,0.299c0.214,0.213 0.32,0.459 0.32,0.736c0,0.277 -0.103,0.519 -0.309,0.725c-0.206,0.206 -0.455,0.309 -0.747,0.309c-0.291,0 -0.544,-0.099 -0.757,-0.298c-0.142,-0.128 -0.284,-0.263 -0.427,-0.406l-0.298,-0.362c-0.086,-0.071 -0.185,-0.142 -0.299,-0.213c-0.27,-0.171 -0.618,-0.317 -1.045,-0.438c-0.427,-0.121 -0.846,-0.174 -1.259,-0.16c-0.753,0.043 -1.187,0.306 -1.301,0.79c-0.128,0.511 -0.085,0.846 0.128,1.002c0.256,0.185 0.832,0.37 1.728,0.555c1.323,0.227 2.226,0.448 2.709,0.661c1.166,0.526 1.827,1.372 1.984,2.538c0.128,0.953 -0.228,1.778 -1.067,2.475c-0.64,0.526 -1.45,0.889 -2.431,1.088c-0.939,0.213 -1.835,0.234 -2.688,0.064Z" style="fill-rule:nonzero;"/></g><path id="separator" d="M1.411,82.012l259.764,0c0.552,0 1,-0.448 1,-1c0,-0.552 -0.448,-1 -1,-1l-259.764,0c-0.552,0 -1,0.448 -1,1c0,0.552 0.448,1 1,1Z" style="fill:#2b2723;"/></g></svg>